<?xml version="1.0" standalone="no"?>
<!DOCTYPE svg PUBLIC "-//W3C//DTD SVG 20010904//EN"
 "http://www.w3.org/TR/2001/REC-SVG-20010904/DTD/svg10.dtd">
<svg version="1.0" xmlns="http://www.w3.org/2000/svg"
 width="256.000000pt" height="226.000000pt" viewBox="0 0 256.000000 226.000000"
 preserveAspectRatio="xMidYMid meet">
<metadata>
Created by potrace 1.16, written by Peter Selinger 2001-2019
</metadata>
<g transform="translate(0.000000,226.000000) scale(0.100000,-0.100000)"
fill="#000000" stroke="none">
<path d="M1170 2149 c-87 -14 -207 -78 -271 -146 -71 -75 -107 -137 -130 -225
-57 -218 30 -439 222 -561 76 -48 141 -68 239 -74 143 -9 273 35 374 128 172
157 215 401 109 613 -66 131 -197 229 -348 261 -77 16 -113 17 -195 4z m230
-185 c98 -29 177 -89 216 -166 67 -132 -3 -318 -158 -418 -66 -43 -143 -65
-192 -56 -55 11 -112 69 -155 159 -81 170 -109 305 -78 378 17 41 66 82 123
103 53 20 178 20 244 0z"/>
<path d="M655 1198 c-84 -9 -182 -51 -250 -106 -197 -159 -248 -440 -119 -659
59 -101 188 -197 308 -229 169 -45 369 10 495 137 242 243 173 656 -135 808
-33 16 -69 32 -81 35 -44 14 -159 21 -218 14z m186 -183 c101 -26 199 -99 242
-180 32 -61 29 -162 -6 -238 -54 -119 -192 -218 -312 -225 -76 -4 -118 17
-162 81 -50 74 -113 290 -113 385 0 44 29 109 59 136 56 50 188 69 292 41z"/>
<path d="M1770 1199 c-158 -17 -299 -111 -388 -260 -28 -47 -62 -178 -62 -239
0 -230 159 -436 381 -495 70 -19 190 -19 262 0 172 45 318 189 363 359 18 66
18 196 0 262 -34 130 -136 255 -255 318 -98 50 -187 66 -301 55z m240 -211
c135 -63 205 -159 204 -279 0 -88 -35 -159 -113 -232 -94 -86 -239 -131 -321
-99 -41 16 -88 72 -109 128 -54 143 -73 358 -37 423 39 73 108 103 226 98 60
-3 90 -10 150 -39z"/>
</g>
</svg>
